<svg xmlns="http://www.w3.org/2000/svg" viewBox="0 0 219.48 219.05"><defs><style>.cls-1{font-size:18px;fill:#1d1d1b;font-family:MyriadPro-Regular, Myriad Pro;}.cls-2{fill:#12100b;stroke:#12100b;stroke-linecap:round;stroke-linejoin:round;}.cls-3{fill:none;stroke:#1d1d1b;stroke-miterlimit:10;}</style></defs><g id="Calque_2" data-name="Calque 2"><g id="Calque_1-2" data-name="Calque 1"><text class="cls-1" transform="matrix(0.98, -0.2, 0.2, 0.98, 124.95, 214.66)">B</text><text class="cls-1" transform="matrix(0.95, -0.3, 0.3, 0.95, 136.15, 212.2)">y</text><text class="cls-1" transform="matrix(0.93, -0.37, 0.37, 0.93, 145.49, 209.09)"> </text><text class="cls-1" transform="translate(150.36 207.2) rotate(-25.83)">S</text><text class="cls-1" transform="translate(159.59 202.61) rotate(-30.56)">t</text><text class="cls-1" transform="translate(165.89 198.89) rotate(-35.28)">é</text><text class="cls-1" transform="translate(174.58 192.68) rotate(-41.28)">p</text><text class="cls-1" transform="matrix(0.68, -0.74, 0.74, 0.68, 183.47, 184.74)">h</text><text class="cls-1" transform="matrix(0.6, -0.8, 0.8, 0.6, 191.23, 176.09)">a</text><text class="cls-1" transform="matrix(0.51, -0.86, 0.86, 0.51, 197.33, 167.8)">n</text><text class="cls-1" transform="matrix(0.44, -0.9, 0.9, 0.44, 203.05, 157.88)">i</text><text class="cls-1" transform="translate(205.58 152.84) rotate(-68.07)">e</text><text class="cls-1" transform="matrix(0.3, -0.95, 0.95, 0.3, 209.32, 143.14)"> </text><text class="cls-1" transform="translate(211 138.12) rotate(-76.89)">C</text><text class="cls-1" transform="translate(213.61 126.5) rotate(-83.11)">o</text><text class="cls-1" transform="translate(214.9 115.07) rotate(-89.07)">u</text><text class="cls-1" transform="translate(214.92 103.62) rotate(-94.17)">t</text><text class="cls-1" transform="matrix(-0.15, -0.99, 0.99, -0.15, 214.37, 96.22)">a</text><text class="cls-1" transform="translate(212.71 86.17) rotate(-103.89)">s</text><path class="cls-2" d="M84.27,70.19c4.38,6.3,6.87,15.38,6.87,15.38V62.28c-2,.29-3.19,3-4.92,3s-10.85-5.64-21.12-5.5S37.91,67.05,38.34,87.74,72,113.51,72,113.51C96.13,119,90.84,137.64,89.4,140.67S85.49,153.4,66.26,153.4,41,138.58,41,138.58c-2.35-4.53-4.39-12.7-4.39-12.7v27.6c1.59-.07,2.74-3.41,5.35-3.26s5.35,5.35,24.3,5.35,27.19-7.67,32.25-19.67,1.16-21.41-4.34-26.76c-5.87-5.71-33.11-13-33.11-13S41.23,92.51,45.28,74.86,76.39,58.86,84.27,70.19Z"></path><path class="cls-2" d="M178.78,125.88s-4.53,16.67-10.87,21-8.94,6.59-19.5,6.59-30.08-3.41-30.08-41.59,10-49.61,30.22-49.61,24.3,13,28.64,24.38V62.28s-3.18,2-5.06,2.17c-4.22.43-13.45-4.63-23.58-4.63s-24.77,5.26-32.43,15c-7.34,9.32-17.32,23.64-11,46.93s28.21,33.84,43.25,33.84,21.25-5.35,24.15-5.35c4.05,0,4.05,4.06,6.22,3.26Z"></path><path class="cls-3" d="M119.64,214.23a107.2,107.2,0,1,1,89.23-142"></path></g></g></svg>